<svg xmlns="http://www.w3.org/2000/svg" viewBox="0 0 51.16 51.16"><defs><style>.cls-1{fill:#ebece9;}.cls-2{fill:#323c41;}</style></defs><title>Asset 4xxxhdpi</title><g id="Layer_2" data-name="Layer 2"><g id="Layer_1-2" data-name="Layer 1"><circle class="cls-1" cx="25.58" cy="25.58" r="25.58"/><path class="cls-2" d="M35.7,24l-4.5,4.5a6.29,6.29,0,0,1-10-1.28l2.09-2.09a1.5,1.5,0,0,1,.34-.23,3.13,3.13,0,0,0,.78,1.35,3.18,3.18,0,0,0,4.5,0l4.5-4.5a3.18,3.18,0,0,0-4.5-4.5l-1.6,1.6a8,8,0,0,0-4.06-.44L26.7,15a6.36,6.36,0,0,1,9,9ZM23.81,31.4,22.21,33a3.18,3.18,0,1,1-4.5-4.5l4.5-4.5a3.18,3.18,0,0,1,4.5,0,3.15,3.15,0,0,1,.79,1.35,1.52,1.52,0,0,0,.34-.22L29.92,23a6.25,6.25,0,0,0-1-1.28,6.36,6.36,0,0,0-9,0l-4.5,4.5a6.36,6.36,0,0,0,9,9l3.41-3.41a8,8,0,0,1-4.06-.44Zm0,0"/></g></g></svg>