<svg xmlns="http://www.w3.org/2000/svg" viewBox="0 0 51.16 51.16"><defs><style>.cls-1{fill:#ebece9;}.cls-2{fill:#323c41;}</style></defs><title>Asset 2xxxhdpi</title><g id="Layer_2" data-name="Layer 2"><g id="Layer_1-2" data-name="Layer 1"><circle class="cls-1" cx="25.58" cy="25.58" r="25.58"/><path class="cls-2" d="M37.85,18.35a9.88,9.88,0,0,1-2.84.78,5,5,0,0,0,2.17-2.73A9.94,9.94,0,0,1,34,17.59a4.95,4.95,0,0,0-8.42,4.51,14,14,0,0,1-10.19-5.17A5,5,0,0,0,17,23.53a4.92,4.92,0,0,1-2.24-.62V23a5,5,0,0,0,4,4.85,4.94,4.94,0,0,1-2.23.09,5,5,0,0,0,4.62,3.43,10,10,0,0,1-7.32,2A14.06,14.06,0,0,0,35.4,21.54c0-.21,0-.43,0-.64a10,10,0,0,0,2.47-2.56Zm0,0"/></g></g></svg>