<svg xmlns="http://www.w3.org/2000/svg" viewBox="0 0 51.16 51.16"><defs><style>.cls-1{fill:#ebece9;}.cls-2{fill:#323c41;}</style></defs><title>Asset 1xxxhdpi</title><g id="Layer_2" data-name="Layer 2"><g id="Layer_1-2" data-name="Layer 1"><circle class="cls-1" cx="25.58" cy="25.58" r="25.58"/><path class="cls-2" d="M27.41,31.67c-1.74-.14-2.47-1-3.83-1.83-.75,3.93-1.67,7.71-4.38,9.68-.84-5.95,1.23-10.42,2.19-15.16-1.64-2.76.2-8.31,3.65-6.94,4.25,1.68-3.68,10.25,1.64,11.32,5.56,1.12,7.83-9.65,4.38-13.15-5-5.05-14.5-.11-13.33,7.12.28,1.77,2.11,2.31.73,4.75-3.19-.71-4.14-3.22-4-6.57.2-5.49,4.93-9.33,9.68-9.86,6-.67,11.64,2.21,12.42,7.85.88,6.37-2.71,13.28-9.13,12.78Zm0,0"/></g></g></svg>